<svg id="Layer_1" data-name="Layer 1" xmlns="http://www.w3.org/2000/svg" viewBox="0 0 27 27">
    <title>poi</title>
    <path d="M13.5,0a13.2978,13.2978,0,0,1,3.5859.4812,13.6524,13.6524,0,0,1,3.23,1.3579,13.4743,13.4743,0,0,1,4.845,4.845,13.6524,13.6524,0,0,1,1.3579,3.23,13.6019,13.6019,0,0,1,0,7.1719,13.6524,13.6524,0,0,1-1.3579,3.23,13.4743,13.4743,0,0,1-4.845,4.845,13.6524,13.6524,0,0,1-3.23,1.3579,13.6019,13.6019,0,0,1-7.1719,0,13.6524,13.6524,0,0,1-3.23-1.3579,13.4743,13.4743,0,0,1-4.845-4.845A13.6812,13.6812,0,0,1,.4812,17.0925a13.6265,13.6265,0,0,1,0-7.1785,13.6524,13.6524,0,0,1,1.3579-3.23,13.4743,13.4743,0,0,1,4.845-4.845A13.6812,13.6812,0,0,1,9.9075.4812,13.2755,13.2755,0,0,1,13.5,0M24.1655,8.4375a11.2678,11.2678,0,0,0-1.2129-2.01,12.0084,12.0084,0,0,0-1.582-1.72,12.24,12.24,0,0,0-1.8853-1.3843,11.3526,11.3526,0,0,0-2.1226-.9888A11.2094,11.2094,0,0,1,18.22,3.731a14.3316,14.3316,0,0,1,.679,1.5227,15.8775,15.8775,0,0,1,.5076,1.5886q.2109.8042.3691,1.5952h4.39M25.3125,13.5a11.6525,11.6525,0,0,0-.4878-3.375H20.0391q.1055.8437.1582,1.6809T20.25,13.5q0,.8569-.0527,1.6941t-.1582,1.6809h4.7856a11.6525,11.6525,0,0,0,.4878-3.375M13.5,25.3125a2.2086,2.2086,0,0,0,1.2063-.356,4.376,4.376,0,0,0,1.0349-.936,7.4025,7.4025,0,0,0,.85-1.3118,15.3272,15.3272,0,0,0,.6658-1.4832q.29-.7515.4878-1.45t.3032-1.2129H8.9517q.1055.5142.3032,1.2129t.4878,1.45a15.3274,15.3274,0,0,0,.6658,1.4832,7.4025,7.4025,0,0,0,.85,1.3118,4.3761,4.3761,0,0,0,1.0349.936,2.2086,2.2086,0,0,0,1.2063.356m4.8384-8.4375q.1055-.8438.1648-1.6809T18.5625,13.5q0-.8569-.0593-1.6941t-.1648-1.6809H8.6616q-.1055.8437-.1648,1.6809T8.4375,13.5q0,.8569.0593,1.6941t.1648,1.6809h9.6768M1.6875,13.5a11.6525,11.6525,0,0,0,.4878,3.375H6.9609q-.1055-.8438-.1582-1.6809T6.75,13.5q0-.8569.0527-1.6941t.1582-1.6809H2.1753A11.6525,11.6525,0,0,0,1.6875,13.5M13.5,1.6875a2.2086,2.2086,0,0,0-1.2063.356,4.376,4.376,0,0,0-1.0349.936,7.4025,7.4025,0,0,0-.85,1.3118,15.3274,15.3274,0,0,0-.6658,1.4832q-.29.7515-.4878,1.45T8.9517,8.4375h9.0967q-.1055-.5142-.3032-1.2129t-.4878-1.45a15.3272,15.3272,0,0,0-.6658-1.4832,7.4025,7.4025,0,0,0-.85-1.3118,4.376,4.376,0,0,0-1.0349-.936A2.2086,2.2086,0,0,0,13.5,1.6875m-3.8628.646a11.3526,11.3526,0,0,0-2.1226.9888A12.24,12.24,0,0,0,5.6294,4.7065a12.0084,12.0084,0,0,0-1.582,1.72,11.2678,11.2678,0,0,0-1.2129,2.01h4.39q.1582-.791.3691-1.5952a15.8778,15.8778,0,0,1,.5076-1.5886A14.3317,14.3317,0,0,1,8.78,3.731a11.2093,11.2093,0,0,1,.8569-1.3975M2.8345,18.5625a11.2678,11.2678,0,0,0,1.2129,2.01,12.0083,12.0083,0,0,0,1.582,1.72,12.24,12.24,0,0,0,1.8853,1.3843,11.3525,11.3525,0,0,0,2.1226.9888A11.2093,11.2093,0,0,1,8.78,23.269a14.3317,14.3317,0,0,1-.679-1.5227,15.8778,15.8778,0,0,1-.5076-1.5886q-.2109-.8042-.3691-1.5952h-4.39m14.5283,6.104a11.3526,11.3526,0,0,0,2.1226-.9888,12.24,12.24,0,0,0,1.8853-1.3843,12.0083,12.0083,0,0,0,1.582-1.72,11.2679,11.2679,0,0,0,1.2129-2.01h-4.39q-.1582.791-.3691,1.5952a15.8775,15.8775,0,0,1-.5076,1.5886,14.3315,14.3315,0,0,1-.679,1.5227A11.2094,11.2094,0,0,1,17.3628,24.6665Z"
          fill="#666767"/>
</svg>
