<svg id="Layer_1" data-name="Layer 1" xmlns="http://www.w3.org/2000/svg" viewBox="0 0 27 36">
    <title>poi</title>
    <path d="M13.5,0a13.37,13.37,0,0,1,3.5859.4792,13.7866,13.7866,0,0,1,3.2273,1.3438,13.3386,13.3386,0,0,1,6.2016,7.9687A12.9009,12.9009,0,0,1,27,13.3333a10.5664,10.5664,0,0,1-.348,2.74,13.4051,13.4051,0,0,1-1.002,2.5938L13.5,36,1.35,18.6667A13.405,13.405,0,0,1,.348,16.0729,10.5664,10.5664,0,0,1,0,13.3333,12.9009,12.9009,0,0,1,.4852,9.7917,13.4346,13.4346,0,0,1,1.8457,6.6042a13.453,13.453,0,0,1,4.841-4.7812A13.7865,13.7865,0,0,1,9.9141.4792,13.37,13.37,0,0,1,13.5,0M23.5406,17.625q0-.0208.0105-.0208t.0105-.0208a8.98,8.98,0,0,0,.8016-2.0625,8.8816,8.8816,0,0,0,.2742-2.1875,10.5337,10.5337,0,0,0-.8754-4.2708,11.1561,11.1561,0,0,0-2.3941-3.5,11.31,11.31,0,0,0-3.5437-2.3646A10.8961,10.8961,0,0,0,13.5,2.3333a10.8961,10.8961,0,0,0-4.3242.8646A11.31,11.31,0,0,0,5.632,5.5625a11.1561,11.1561,0,0,0-2.3941,3.5,10.5337,10.5337,0,0,0-.8754,4.2708,8.8815,8.8815,0,0,0,.2742,2.1875,8.98,8.98,0,0,0,.8016,2.0625q0,.0208.0105.0208t.0105.0208L13.5,30.7917,23.5406,17.625M13.5,5.5a7.8122,7.8122,0,0,1,3.09.6146,8.0093,8.0093,0,0,1,2.5207,1.6771,7.9,7.9,0,0,1,1.698,2.49,7.796,7.796,0,0,1,0,6.1042,7.9,7.9,0,0,1-1.698,2.49A8.0093,8.0093,0,0,1,16.59,20.5521a8.0764,8.0764,0,0,1-6.18,0A8.0092,8.0092,0,0,1,7.8891,18.875a7.9,7.9,0,0,1-1.698-2.49,7.796,7.796,0,0,1,0-6.1042,7.9,7.9,0,0,1,1.698-2.49A8.0092,8.0092,0,0,1,10.41,6.1146,7.8123,7.8123,0,0,1,13.5,5.5m0,13.3333a5.5407,5.5407,0,0,0,5.1363-3.3542,5.54,5.54,0,0,0,0-4.2917,5.5054,5.5054,0,0,0-1.1918-1.75,5.6289,5.6289,0,0,0-7.8891,0,5.5054,5.5054,0,0,0-1.1918,1.75,5.54,5.54,0,0,0,0,4.2917,5.5054,5.5054,0,0,0,1.1918,1.75A5.5694,5.5694,0,0,0,13.5,18.8333Z"
          fill="#676867"/>
</svg>
