<svg id="Layer_1" data-name="Layer 1" xmlns="http://www.w3.org/2000/svg" viewBox="0 0 25.9746 26">
    <title>poi</title>
    <path d="M20.3914,15.3994a2.8141,2.8141,0,0,1,1.0722.2095,2.7243,2.7243,0,0,1,.9073.603l2.7916,2.793a2.7258,2.7258,0,0,1,.6027.9077,2.8529,2.8529,0,0,1,0,2.1455,2.7258,2.7258,0,0,1-.6027.9077q-.7233.7363-1.32,1.3013a7.4043,7.4043,0,0,1-1.2308.9521,5.095,5.095,0,0,1-1.4085.584A7.6638,7.6638,0,0,1,19.3382,26a11.477,11.477,0,0,1-3.2611-.4951,18.0882,18.0882,0,0,1-3.3309-1.3711,23.88,23.88,0,0,1-3.2484-2.082A28.158,28.158,0,0,1,6.49,19.4175,28.8975,28.8975,0,0,1,3.8829,16.396a23.6747,23.6747,0,0,1-2.0556-3.25A18.2327,18.2327,0,0,1,.4822,9.8389,11.3864,11.3864,0,0,1,0,6.64,7.5956,7.5956,0,0,1,.1967,4.78,5.21,5.21,0,0,1,.78,3.3706a7.075,7.075,0,0,1,.9517-1.2314q.5647-.59,1.3006-1.314A2.827,2.827,0,0,1,3.9336.2158a2.7872,2.7872,0,0,1,2.1508,0,2.8079,2.8079,0,0,1,.9073.6094l2.7916,2.793a2.7258,2.7258,0,0,1,.6027.9077,2.8179,2.8179,0,0,1,.2094,1.0728,2.478,2.478,0,0,1-.19.9966,3.6016,3.6016,0,0,1-.4695.7935,4.6979,4.6979,0,0,1-.6154.6475q-.3363.292-.6154.5713a3.7324,3.7324,0,0,0-.4695.5649,1.0894,1.0894,0,0,0-.19.6157,1.1252,1.1252,0,0,0,.3426.8252l6.9917,6.9951a1.1241,1.1241,0,0,0,.8248.3428,1.0881,1.0881,0,0,0,.6154-.19,3.7313,3.7313,0,0,0,.5647-.47q.2792-.2793.571-.6157a4.6975,4.6975,0,0,1,.6471-.6157,3.5991,3.5991,0,0,1,.7931-.47,2.4747,2.4747,0,0,1,.9961-.19M19.3382,24.375a5.7942,5.7942,0,0,0,1.529-.1714,3.9478,3.9478,0,0,0,1.11-.4951,5.7341,5.7341,0,0,0,.9644-.8062q.4695-.4824,1.0786-1.0918a1.1252,1.1252,0,0,0,.3426-.8252,1.1045,1.1045,0,0,0-.184-.54,4.7649,4.7649,0,0,0-.4758-.6538q-.2919-.3428-.6535-.7046t-.7106-.6855q-.349-.3237-.6471-.5967t-.4632-.438a1.1389,1.1389,0,0,0-.8375-.3428,1.0587,1.0587,0,0,0-.6091.19,3.9168,3.9168,0,0,0-.5583.47q-.2792.2793-.5774.6157a5.0026,5.0026,0,0,1-.6535.6157,3.5991,3.5991,0,0,1-.7931.47,2.4747,2.4747,0,0,1-.9961.19,2.8141,2.8141,0,0,1-1.0722-.2095,2.7243,2.7243,0,0,1-.9073-.603L7.2328,11.7686a2.7258,2.7258,0,0,1-.6027-.9077,2.8179,2.8179,0,0,1-.2094-1.0728,2.478,2.478,0,0,1,.19-.9966,3.6016,3.6016,0,0,1,.4695-.7935,5.003,5.003,0,0,1,.6154-.6538q.3363-.2983.6154-.5776a3.9178,3.9178,0,0,0,.4695-.5586,1.06,1.06,0,0,0,.19-.6094,1.14,1.14,0,0,0-.3426-.8379q-.165-.165-.4378-.4634T7.5944,3.65q-.3236-.3491-.6852-.7109T6.205,2.2852a4.7627,4.7627,0,0,0-.6535-.4761,1.1032,1.1032,0,0,0-.5393-.1841,1.1241,1.1241,0,0,0-.8248.3428q-.6091.6094-1.0849,1.0791a6.4683,6.4683,0,0,0-.8121.9648,3.75,3.75,0,0,0-.5076,1.1108A5.7442,5.7442,0,0,0,1.6115,6.64a9.9834,9.9834,0,0,0,.4632,2.9326,16.5,16.5,0,0,0,1.2816,3.0215,23.0137,23.0137,0,0,0,1.9351,2.9771,26.5229,26.5229,0,0,0,2.4363,2.7739,27.2832,27.2832,0,0,0,2.7853,2.4121,22.987,22.987,0,0,0,2.9693,1.9106,16.3661,16.3661,0,0,0,2.9946,1.2568A9.881,9.881,0,0,0,19.3382,24.375Z"
          fill="#666767"/>
</svg>
